<?xml version="1.0" encoding="UTF-8" standalone="no"?>
<svg
   width="624.88983mm"
   height="357.04379mm"
   viewBox="0 0 624.88983 357.04379"
   version="1.1"
   id="svg1"
   xmlns="http://www.w3.org/2000/svg"
   xmlns:svg="http://www.w3.org/2000/svg">
  <defs
     id="defs1">
    <linearGradient
       id="swatch1"> 
      <stop
         style="stop-color:#ff0000;stop-opacity:1;"
         offset="0"
         id="stop1" />
    </linearGradient>
  </defs>
  <path
     d="m 365.84744,258.90588 c -6.747,1.44 -7.082,12.327 -8.003,17.855 -2.568,15.405 -3.799,32.923 0.37,48.154 1.846,6.745 6.168,15.084 14.512,13.196 2.498,-0.565 3.173,-2.708 3.395,-4.994 0.465,-4.81 -0.336,-10.276 -0.794,-15.081 -1.051,-11.047 -0.139,-22.649 1.44,-33.602 0.868,-6.026 3.567,-12.641 2.487,-18.785 -0.96,-5.466 -8.643,-7.759 -13.407,-6.742 z"
     id="I"
     style="fill:#d40000" />
  <path
     d="m 378.28344,218.39788 c -6.571,0.895 -12.325,4.398 -15.277,10.471 -2.495,5.132 -2.028,12.17 4.429,13.822 1.548,0.396 3.457,0.065 5.027,-0.14 6.966,-0.908 11.865,-5.76 13.832,-12.359 0.597,-2.002 1.677,-5.336 1.109,-7.408 -1.038,-3.787 -5.793,-4.838 -9.121,-4.385"
     id="I."
     style="fill:#d40000" />
  <path
     d="m 35.911441,210.99088 c -10.48,1.636 -17.624,11.983 -22.026,20.786 -6.4239998,12.846 -8.8249998,26.929 -10.8539998,41.01 -1.43,9.921 -2.83499994,20.137 -2.83899994,30.162 -0.004,11 -2.53100006,28.214 10.84799974,32.928 6.31,2.224 12.711,-1.51 13.9,-8.057 1.356,-7.466 -0.066,-15.76 -0.396,-23.283 -0.43,-9.823 0.787,-19.916 2.141,-29.633 0.716,-5.138 1.609,-10.381 3.147,-15.346 0.283,-0.913 1.18,-4.505 2.527,-4.294 0.819,0.128 1.316,1.546 1.634,2.178 1.082,2.144 1.963,4.364 2.796,6.615 2.636,7.128 5.332,17.902 12.351,21.993 11.388,6.637 23.927,-6.962 29.929,-15.114 1.919,-2.606 3.285,-5.531 5.092,-8.202 0.426,-0.63 1.686,-2.609 2.554,-1.509 1.09,1.381 0.456,4.166 0.306,5.742 -0.444,4.668 -0.913,9.349 -1.348,14.023 -1.558,16.755 -4.389,35.476 0.951,51.858 3.27,10.032 12.096,18.034 23.370999,16.053 3.578,-0.629 4.228,-4.257 4.233,-7.321 0.011,-6.989 -1.59,-13.97 -2.368,-20.902 -2.597,-23.13 -2.804,-47.426 1.786,-70.379 1.56,-7.802 4.022,-15.808 4.022,-23.813 0,-3.422 0.173,-6.664 -2.032,-9.525 -4.203,-5.455 -13.602,-8.003 -19.130999,-2.883 -3.478,3.221 -5.719,8.337 -8.053,12.408 -4.287,7.478 -8.56,15.06 -14.111,21.696 -2.478,2.962 -5.355,5.907 -8.796,7.731 -1.057,0.56 -2.718,1.611 -3.969,1.285 -2.915,-0.76 -5.186,-5.499 -6.415,-7.957 -4.294,-8.587 -6.561,-18.073 -9.195,-27.252 -1.547,-5.39 -2.765,-12.134 -10.054,-10.996"
     id="M"
     style="fill:#d40000;fill-opacity:1" />
  <path
     d="m 467.18344,208.34288 c -23.646,3.106 -47.565,15.024 -62.269,34.284 -6.3,8.252 -10.36,18.195 -5.399,28.046 0.988,1.962 2.178,3.982 3.907,5.379 4.836,3.908 11.368,4.937 17.194,6.639 11.863,3.466 24.431,5.698 35.983,10.054 5.969,2.251 15.763,6.623 15.87,14.175 0.059,4.179 -2.735,8.031 -5.552,10.848 -6.561,6.561 -15.296,9.813 -24.341,10.923 -4.227,0.519 -10.434,0.263 -13.758,-2.749 -4.338,-3.931 -4.456,-9.012 -2.82,-14.26 0.729,-2.338 2.733,-6.314 1.45,-8.72 -1.725,-3.234 -9.011,-0.338 -11.33,0.851 -11.732,6.014 -20.754,24.158 -10.535,35.649 6.771,7.613 19.091,9.902 28.791,9.238 10.497,-0.719 20.833,-2.791 30.692,-6.54 7.595,-2.888 14.649,-6.649 20.637,-12.228 3.623,-3.375 7.037,-6.942 9.769,-11.106 1.731,-2.639 3.239,-5.472 4.253,-8.467 3.683,-10.876 -1.63,-18.734 -10.847,-24.392 -12.554,-7.707 -27.139,-11.126 -41.01,-15.648 -6.159,-2.007 -12.682,-3.75 -18.521,-6.596 -2.834,-1.381 -5.322,-3.708 -5.435,-7.075 -0.148,-4.413 3.21,-8.514 5.892,-11.642 6.853,-7.992 17.886,-14.447 28.382,-15.909 3.773,-0.526 8.672,-0.978 11.906,1.498 4.322,3.31 3.032,9.274 1.211,13.617 -0.794,1.894 -2.56,4.507 -1.391,6.59 2.128,3.79 10.004,1.578 12.88,0.054 11.161,-5.915 18.138,-24.758 8.947,-35.219 -6.111,-6.955 -15.686,-8.461 -24.557,-7.296"
     id="S"
     style="fill:#d40000" />
  <path
     d="m 136.07544,300.37088 c 2.028,6.236 3.677,12.611 7.161,18.256 10.253,16.613 28.767,25.42 48.137,24.101 2.038,-0.139 4.047,-0.113 6.085,-0.332 10.067,-1.082 26.667,-3.961 26.984,-16.889 0.091,-3.698 -0.371,-8.532 -4.759,-9.361 -5.764,-1.089 -12.199,2.83 -17.727,4.014 -6.862,1.47 -13.943,1.712 -20.373,-1.524 -2.515,-1.266 -4.57,-3.147 -6.879,-4.71 -4.897,-3.315 -8.309,-8.539 -10.228,-14.083 -0.488,-1.409 -1.721,-4.299 -1.066,-5.764 0.587,-1.312 3.178,-1.741 4.415,-2.096 4.392,-1.262 8.969,-2.101 13.494,-2.723 10.485,-1.441 20.966,-2.608 31.485,-3.659 6.422,-0.642 14.09,-1.084 19.579,-4.866 3.554,-2.449 5.833,-10.032 1.311,-12.945 -2.563,-1.651 -7.367,-1.159 -10.307,-1.273 -11.733,-0.457 -23.759,1.277 -35.454,2.082 -8.683,0.598 -17.899,0.551 -26.458,2.14 0,-16.446 11.519,-34.405 28.046,-38.192 7.301,-1.673 14.983,-1.193 22.225,-3.124 3.329,-0.888 6.818,-2.438 7.808,-6.044 2.117,-7.709 -3.585,-15.169 -10.983,-16.668 -9.968,-2.02 -21.43,1.783 -30.427,5.901 -17.755,8.129 -30.558,21.707 -37.292,40.135 -1.752,4.794 -3.029,9.838 -4.135,14.817 -0.489,2.201 -0.601,5.435 -1.743,7.38 -0.985,1.678 -4.34,2.281 -6.042,3.013 -4.421,1.902 -9.55,3.766 -12.919,7.344 -1.333,1.416 -2.427,3.012 -3.285,4.752 -0.663,1.345 -1.129,2.726 -1.235,4.233 -0.909,12.965 16.972,8.229 24.583,6.085"
     id="E"
     style="fill:#d40000" />
  <path
     id="A"
     style="fill:#d40000"
     d="m 603.40971,197.36668 c -5.19804,-0.16026 -10.21928,5.31303 -14.89522,6.07921 -3.431,0.562 -6.2801,-0.81385 -9.7901,0.62115 -9.177,3.751 -15.73687,13.31205 -21.17287,21.16305 -8.308,11.997 -15.66216,24.7699 -22.15316,37.8349 -2.872,5.782 -4.976,12.04609 -7.999,17.72709 -1.526,2.866 -5.24315,2.77864 -7.94215,3.93464 -3.836,1.643 -7.47759,4.59019 -9.55859,8.23619 -1.759,3.081 -2.36715,7.82077 0.61185,10.44277 1.315,1.158 4.403,1.60228 4.67,3.58428 0.366,2.707 -1.05998,6.12612 -1.70998,8.72712 -2.048,8.193 -4.33203,16.09473 -4.33203,24.60573 0,6.685 1.61883,11.31981 8.99583,11.63081 8.581,0.362 12.65519,-5.71983 14.81719,-13.21883 2.391,-8.293 3.80589,-16.8339 6.16189,-25.1349 0.891,-3.139 1.39701,-6.706 3.12901,-9.525 2.514,-4.092 7.58025,-5.04386 11.87525,-6.23786 10.608,-2.948 21.81381,-5.41132 32.80781,-5.40432 h 10e-4 c 0.288,3.518 1.48573,7.19733 2.45773,10.58333 2.602,9.065 6.29633,20.05475 13.68133,26.37875 1.509,1.292 3.35667,2.627 5.29167,3.175 4.645,1.315 14.39916,-1.3489 16.11116,-6.2699 1.416,-4.071 -1.04485,-8.8929 -2.81585,-12.4349 -3.148,-6.297 -5.73789,-12.5211 -7.62589,-19.3151 -3.965,-14.264 -5.03624,-29.22483 -5.67924,-43.92083 -0.344,-7.857 -0.90501,-16.25508 0.12299,-24.07708 0.885,-6.737 0.63786,-13.84599 0.93586,-20.63699 0.118,-2.689 0.20005,-5.79388 -2.37195,-7.40988 -1.21631,-0.76406 -2.42503,-1.10145 -3.62458,-1.13843 z m -20.32279,31.06012 c 0.17035,0.005 0.33996,0.032 0.50746,0.0863 2.931,0.949 1.66987,7.07695 1.96887,9.35395 0.45032,3.42787 0.78015,24.02004 0.52917,25.92865 -0.254,1.936 0.51213,5.68117 -0.88987,7.24917 -1.178,1.318 -5.96194,1.17789 -7.68894,1.46089 -7.267,1.192 -14.80541,1.69829 -21.96041,3.46129 v -10e-4 c 0.231,-5.29 3.16514,-10.9579 5.49114,-15.6099 3.831,-7.662 7.48814,-15.4551 12.42714,-22.4901 1.921,-2.736 3.9869,-5.36403 6.4239,-7.66103 0.77175,-0.728 1.99908,-1.80987 3.19154,-1.77818 z" />
  <path
     d="m 276.57244,237.66188 c 5.036,0 9.934,1.719 14.552,3.599 12.722,5.179 26.317,14.623 27.736,29.474 0.766,8.011 -2.751,15.672 -7.018,22.225 -12.676,19.466 -34.079,32.836 -55.379,41.06 -5.075,1.96 -10.488,2.806 -15.61,4.631 -5.64,2.009 -11.395,5.568 -11.102,12.252 0.076,1.726 0.375,4.006 1.869,5.106 2.796,2.056 7.732,0.501 10.82,-0.013 9.781,-1.63 19.34,-3.791 28.575,-7.474 25.503,-10.169 52.034,-26.439 66.463,-50.535 5.952,-9.939 10.946,-22.619 9.091,-34.396 -1.076,-6.832 -4.815,-12.759 -9.166,-17.992 -9.616,-11.564 -24.076,-19.367 -38.343,-23.806 -5.684,-1.768 -11.852,-2.26 -17.447,-4.086 -1.906,-0.622 -0.933,-3.981 -0.833,-5.445 0.296,-4.329 2.253,-13.473 -3.68,-14.436 -5.413,-0.878 -13.459,2.628 -15.925,7.557 -1.256,2.511 -1.213,7.059 -3.704,8.769 -1.989,1.366 -6.161,0.405 -8.417,0.251 -7.52,-0.515 -15.788,1.032 -20.278,7.649 -1.383,2.038 -3.173,5.129 -2.172,7.673 0.82,2.085 3.214,2.744 5.252,2.887 5.185,0.363 10.419,0.58 15.61,0.807 1.5,0.066 6.343,-0.598 6.785,1.349 0.439,1.935 -0.2,4.878 -0.39,6.864 -0.473,4.947 -0.999,9.877 -1.591,14.817 -1.576,13.165 -2.748,26.361 0.255,39.423 1.622,7.056 3.67,17.711 12.404,18.971 4.783,0.689 12.14,-1.251 13.43,-6.535 0.828,-3.389 -0.204,-7.02 -1.029,-10.319 -1.199,-4.796 -2.514,-9.598 -2.853,-14.552 -0.673,-9.82 -0.651,-19.827 0.286,-29.633 0.509,-5.324 1.697,-10.801 1.807,-16.14"
     id="D"
     style="fill:#d40000" />
  <path
     id="yuvarlak"
     style="fill:#d40000"
     d="m 317.83592,0.00972809 c -2.77629,-0.04832812 -5.52123,0.08151498 -8.19123,0.43201497 v -0.001034 c -6.725,0.88300004 -13.25726,1.56426994 -19.84426,3.36826994 -13.028,3.566 -25.21517,10.366864 -35.45417,19.122864 -9.003,7.699 -16.71805,17.319179 -22.02605,27.933179 -16.386,32.768 -13.16375,72.684008 9.85625,101.600008 6.363,7.992 13.97207,14.75688 22.48907,20.37188 8.219,5.419 17.47598,9.43677 26.98698,11.93777 11.735,3.085 24.23492,3.77031 36.24792,2.27531 13.465,-1.675 26.3369,-6.49224 37.8349,-13.63224 8.432,-5.236 16.04132,-11.96181 22.32732,-19.62981 33.351,-40.687 26.40203,-103.859294 -16.50597,-135.162294 -8.798,-6.418 -18.61717,-11.5008767 -29.10417,-14.5148767 -7.68075,-2.20725 -16.2877,-3.95605731 -24.61659,-4.10104121 z M 274.72951,38.775837 c 1.64453,-0.0571 3.20852,0.421121 4.43177,1.783871 1.824,2.033 2.25426,5.871298 2.93626,8.455298 1.341,5.075 2.84699,10.201733 4.79299,15.080733 1.085,2.72 4.02801,11.062023 7.93801,9.911023 3.32,-0.978 6.11968,-3.903923 8.26668,-6.470923 4.598,-5.496 8.11597,-11.788184 11.65097,-17.992184 3.093,-5.428 5.78417,-10.817978 12.89017,-10.294978 8.204,0.605 9.46632,8.548962 8.65632,15.056962 -0.876,7.037 -2.94237,13.858083 -3.81837,20.902083 -1.815,14.588 -2.21005,29.284358 -0.84905,43.921358 0.584,6.276 1.62014,12.5209 2.28514,18.7849 0.242,2.278 -0.35394,5.61967 -2.83394,6.40167 -9.43,2.972 -16.95178,-6.08259 -18.95078,-14.07459 -2.982,-11.926 -1.52536,-24.71408 -0.31936,-36.777088 0.55,-5.502 1.71089,-11.149267 1.01389,-16.669267 l -5.2e-4,-10e-4 c -2.439,1.162 -3.43106,4.4671 -4.85706,6.6151 -2.416,3.639 -5.5053,7.09526 -8.9023,9.84126 -1.471,1.189 -3.03499,2.255641 -4.76199,3.040641 -1.264,0.574 -2.60075,0.978128 -3.96875,1.206128 -9.763,1.627 -13.07903,-10.783679 -15.72203,-17.791679 -0.903,-2.394 -2.34987,-4.719267 -3.06287,-7.144267 -3.318,1.724 -3.75244,9.6271 -4.29844,12.9651 -1.97,12.032 -1.52187,23.636752 -1.52187,35.718752 0,4.588 0.66618,10.40736 -4.23282,12.86536 -1.371,0.688 -2.97092,0.99905 -4.49792,0.84905 -10.257,-1.013 -10.58333,-13.12613 -10.58333,-20.85713 0,-11.594 1.41203,-23.223898 3.33003,-34.659898 1.928,-11.497 4.86417,-23.603333 12.44317,-32.808333 1.42,-1.725 3.06378,-3.392643 4.86378,-4.720643 1.9775,-1.45875 4.94134,-3.0421 7.68222,-3.137276 z" />
</svg>
